<?xml version="1.0" encoding="UTF-8" standalone="no"?>
<!DOCTYPE svg PUBLIC "-//W3C//DTD SVG 1.1//EN"
 "http://www.w3.org/Graphics/SVG/1.1/DTD/svg11.dtd">
<!-- Generated by graphviz version 12.2.1 (20241206.2353)
 -->
<!-- Title: Makroökonomik_Evolution Pages: 1 -->
<svg width="537pt" height="1038pt"
 viewBox="0.00 0.00 537.25 1037.50" xmlns="http://www.w3.org/2000/svg" xmlns:xlink="http://www.w3.org/1999/xlink">
<g id="graph0" class="graph" transform="scale(1 1) rotate(0) translate(4 1033.5)">
<title>Makroökonomik_Evolution</title>
<polygon fill="white" stroke="none" points="-4,4 -4,-1033.5 533.25,-1033.5 533.25,4 -4,4"/>
<!-- klassik -->
<g id="node1" class="node">
<title>klassik</title>
<path fill="#f5f5f5" stroke="#9e9e9e" stroke-width="1.5" d="M407.5,-1029.5C407.5,-1029.5 261.75,-1029.5 261.75,-1029.5 255.75,-1029.5 249.75,-1023.5 249.75,-1017.5 249.75,-1017.5 249.75,-979.5 249.75,-979.5 249.75,-973.5 255.75,-967.5 261.75,-967.5 261.75,-967.5 407.5,-967.5 407.5,-967.5 413.5,-967.5 419.5,-973.5 419.5,-979.5 419.5,-979.5 419.5,-1017.5 419.5,-1017.5 419.5,-1023.5 413.5,-1029.5 407.5,-1029.5"/>
<text text-anchor="middle" x="334.62" y="-1015.05" font-family="Arial" font-size="11.00">Klassisches Paradigma</text>
<text text-anchor="middle" x="334.62" y="-1001.55" font-family="Arial" font-size="11.00">(Smith, Say, Malthus)</text>
<text text-anchor="middle" x="334.62" y="-988.05" font-family="Arial" font-size="11.00">• Selbststabilisierung der Märkte</text>
<text text-anchor="middle" x="334.62" y="-974.55" font-family="Arial" font-size="11.00">• Aggregierte Phänomene</text>
</g>
<!-- krise -->
<g id="node2" class="node">
<title>krise</title>
<path fill="#ffebee" stroke="#e53935" stroke-width="1.5" d="M309.75,-910.5C309.75,-910.5 171.5,-910.5 171.5,-910.5 165.5,-910.5 159.5,-904.5 159.5,-898.5 159.5,-898.5 159.5,-874 159.5,-874 159.5,-868 165.5,-862 171.5,-862 171.5,-862 309.75,-862 309.75,-862 315.75,-862 321.75,-868 321.75,-874 321.75,-874 321.75,-898.5 321.75,-898.5 321.75,-904.5 315.75,-910.5 309.75,-910.5"/>
<text text-anchor="middle" x="240.62" y="-896.05" font-family="Arial" font-size="11.00">Weltwirtschaftskrise (1930er)</text>
<text text-anchor="middle" x="240.62" y="-882.55" font-family="Arial" font-size="11.00">• Erhebliche Erklärungsdefizite</text>
<text text-anchor="middle" x="240.62" y="-869.05" font-family="Arial" font-size="11.00">• Massenarbeitslosigkeit</text>
</g>
<!-- klassik&#45;&gt;krise -->
<g id="edge1" class="edge">
<title>klassik&#45;&gt;krise</title>
<path fill="none" stroke="#555555" stroke-width="1.2" d="M308.69,-967.08C295.59,-951.72 279.74,-933.12 266.63,-917.75"/>
<polygon fill="#555555" stroke="#555555" stroke-width="1.2" points="261.76,-912.04 269.69,-915.79 263.49,-913.91 267.03,-918.07 266.95,-918.13 266.88,-918.2 263.33,-914.04 264.21,-920.47 261.76,-912.04"/>
<text text-anchor="middle" x="328.88" y="-935.7" font-family="Arial" font-size="9.00"> offenbart Defizite</text>
</g>
<!-- solow -->
<g id="node11" class="node">
<title>solow</title>
<path fill="#e8f5e9" stroke="#43a047" stroke-width="1.5" d="M505.62,-910.5C505.62,-910.5 351.62,-910.5 351.62,-910.5 345.62,-910.5 339.62,-904.5 339.62,-898.5 339.62,-898.5 339.62,-874 339.62,-874 339.62,-868 345.62,-862 351.62,-862 351.62,-862 505.62,-862 505.62,-862 511.62,-862 517.62,-868 517.62,-874 517.62,-874 517.62,-898.5 517.62,-898.5 517.62,-904.5 511.62,-910.5 505.62,-910.5"/>
<text text-anchor="middle" x="428.62" y="-896.05" font-family="Arial" font-size="11.00">Solow&#45;Modell (1956)</text>
<text text-anchor="middle" x="428.62" y="-882.55" font-family="Arial" font-size="11.00">• Kapitalakkumulation</text>
<text text-anchor="middle" x="428.62" y="-869.05" font-family="Arial" font-size="11.00">• Exogener technischer Fortschritt</text>
</g>
<!-- klassik&#45;&gt;solow -->
<g id="edge13" class="edge">
<title>klassik&#45;&gt;solow</title>
<path fill="none" stroke="#555555" stroke-width="1.2" stroke-dasharray="5,2" d="M360.56,-967.08C373.66,-951.72 389.51,-933.12 402.62,-917.75"/>
<polygon fill="#555555" stroke="#555555" stroke-width="1.2" points="407.49,-912.04 405.04,-920.47 405.92,-914.04 402.37,-918.2 402.3,-918.13 402.22,-918.07 405.76,-913.91 399.56,-915.79 407.49,-912.04"/>
<text text-anchor="middle" x="417.93" y="-940.95" font-family="Arial" font-size="9.00"> Langfristige</text>
<text text-anchor="middle" x="417.93" y="-930.45" font-family="Arial" font-size="9.00"> Perspektive</text>
</g>
<!-- keynes -->
<g id="node3" class="node">
<title>keynes</title>
<path fill="#e3f2fd" stroke="#1e88e5" stroke-width="1.5" d="M321.75,-815.5C321.75,-815.5 159.5,-815.5 159.5,-815.5 153.5,-815.5 147.5,-809.5 147.5,-803.5 147.5,-803.5 147.5,-752 147.5,-752 147.5,-746 153.5,-740 159.5,-740 159.5,-740 321.75,-740 321.75,-740 327.75,-740 333.75,-746 333.75,-752 333.75,-752 333.75,-803.5 333.75,-803.5 333.75,-809.5 327.75,-815.5 321.75,-815.5"/>
<text text-anchor="middle" x="240.62" y="-801.05" font-family="Arial" font-size="11.00">Keynesianische Wende (1936)</text>
<text text-anchor="middle" x="240.62" y="-787.55" font-family="Arial" font-size="11.00">J.M. Keynes: &quot;General Theory&quot;</text>
<text text-anchor="middle" x="240.62" y="-774.05" font-family="Arial" font-size="11.00">• Nachfragemangel als Ursache</text>
<text text-anchor="middle" x="240.62" y="-760.55" font-family="Arial" font-size="11.00">• Unterbeschäftigungsgleichgewicht</text>
<text text-anchor="middle" x="240.62" y="-747.05" font-family="Arial" font-size="11.00">• Aktive Fiskal&#45; &amp; Geldpolitik</text>
</g>
<!-- krise&#45;&gt;keynes -->
<g id="edge2" class="edge">
<title>krise&#45;&gt;keynes</title>
<path fill="none" stroke="#555555" stroke-width="1.2" d="M240.62,-861.61C240.62,-850.77 240.62,-837.51 240.62,-824.81"/>
<polygon fill="#555555" stroke="#555555" stroke-width="1.2" points="240.63,-817.17 244.23,-825.17 240.73,-819.71 240.73,-825.17 240.63,-825.17 240.53,-825.17 240.53,-819.71 237.03,-825.17 240.63,-817.17"/>
<text text-anchor="middle" x="256.75" y="-835.45" font-family="Arial" font-size="9.00"> führt zu</text>
</g>
<!-- islm -->
<g id="node4" class="node">
<title>islm</title>
<path fill="#e3f2fd" stroke="#1e88e5" stroke-width="1.5" d="M168.5,-655.5C168.5,-655.5 28.75,-655.5 28.75,-655.5 22.75,-655.5 16.75,-649.5 16.75,-643.5 16.75,-643.5 16.75,-605.5 16.75,-605.5 16.75,-599.5 22.75,-593.5 28.75,-593.5 28.75,-593.5 168.5,-593.5 168.5,-593.5 174.5,-593.5 180.5,-599.5 180.5,-605.5 180.5,-605.5 180.5,-643.5 180.5,-643.5 180.5,-649.5 174.5,-655.5 168.5,-655.5"/>
<text text-anchor="middle" x="98.62" y="-641.05" font-family="Arial" font-size="11.00">IS&#45;LM&#45;Modell (1936–1968)</text>
<text text-anchor="middle" x="98.62" y="-627.55" font-family="Arial" font-size="11.00">John Hicks</text>
<text text-anchor="middle" x="98.62" y="-614.05" font-family="Arial" font-size="11.00">• Grafische Interpretation</text>
<text text-anchor="middle" x="98.62" y="-600.55" font-family="Arial" font-size="11.00">• Standardwerkzeug der Politik</text>
</g>
<!-- keynes&#45;&gt;islm -->
<g id="edge3" class="edge">
<title>keynes&#45;&gt;islm</title>
<path fill="none" stroke="#555555" stroke-width="1.2" d="M176.11,-739.71C168.88,-734.24 161.95,-728.31 155.88,-722 139.71,-705.2 126.15,-683.02 116.29,-664.16"/>
<polygon fill="#555555" stroke="#555555" stroke-width="1.2" points="112.68,-657.07 119.51,-662.57 113.92,-659.28 116.39,-664.15 116.3,-664.2 116.21,-664.24 113.74,-659.37 113.09,-665.83 112.68,-657.07"/>
<text text-anchor="middle" x="199.75" y="-694.45" font-family="Arial" font-size="9.00"> mathematisiert durch</text>
</g>
<!-- phillips -->
<g id="node5" class="node">
<title>phillips</title>
<path fill="#e3f2fd" stroke="#1e88e5" stroke-width="1.5" d="M360.38,-655.5C360.38,-655.5 210.88,-655.5 210.88,-655.5 204.88,-655.5 198.88,-649.5 198.88,-643.5 198.88,-643.5 198.88,-605.5 198.88,-605.5 198.88,-599.5 204.88,-593.5 210.88,-593.5 210.88,-593.5 360.38,-593.5 360.38,-593.5 366.38,-593.5 372.38,-599.5 372.38,-605.5 372.38,-605.5 372.38,-643.5 372.38,-643.5 372.38,-649.5 366.38,-655.5 360.38,-655.5"/>
<text text-anchor="middle" x="285.62" y="-641.05" font-family="Arial" font-size="11.00">Klassische Phillips&#45;Kurve</text>
<text text-anchor="middle" x="285.62" y="-627.55" font-family="Arial" font-size="11.00">• Inverser Zusammenhang von</text>
<text text-anchor="middle" x="285.62" y="-614.05" font-family="Arial" font-size="11.00"> &#160;Inflation &amp; Arbeitslosigkeit</text>
<text text-anchor="middle" x="285.62" y="-600.55" font-family="Arial" font-size="11.00">• Politischer Handlungsspielraum</text>
</g>
<!-- keynes&#45;&gt;phillips -->
<g id="edge4" class="edge">
<title>keynes&#45;&gt;phillips</title>
<path fill="none" stroke="#555555" stroke-width="1.2" d="M244.86,-739.73C247.83,-719.74 252.63,-694.84 260.12,-673.5 261.19,-670.47 262.42,-667.4 263.76,-664.35"/>
<polygon fill="#555555" stroke="#555555" stroke-width="1.2" points="267.12,-657.19 266.98,-665.96 266.13,-659.53 263.81,-664.47 263.72,-664.43 263.63,-664.38 265.95,-659.44 260.46,-662.89 267.12,-657.19"/>
<text text-anchor="middle" x="289.38" y="-694.45" font-family="Arial" font-size="9.00"> ergänzt durch</text>
</g>
<!-- friedman -->
<g id="node6" class="node">
<title>friedman</title>
<path fill="#fff3e0" stroke="#fb8c00" stroke-width="1.5" d="M298.5,-547C298.5,-547 152.75,-547 152.75,-547 146.75,-547 140.75,-541 140.75,-535 140.75,-535 140.75,-483.5 140.75,-483.5 140.75,-477.5 146.75,-471.5 152.75,-471.5 152.75,-471.5 298.5,-471.5 298.5,-471.5 304.5,-471.5 310.5,-477.5 310.5,-483.5 310.5,-483.5 310.5,-535 310.5,-535 310.5,-541 304.5,-547 298.5,-547"/>
<text text-anchor="middle" x="225.62" y="-532.55" font-family="Arial" font-size="11.00">Kritik der Phillips&#45;Kurve (1968)</text>
<text text-anchor="middle" x="225.62" y="-519.05" font-family="Arial" font-size="11.00">Friedman &amp; Phelps</text>
<text text-anchor="middle" x="225.62" y="-505.55" font-family="Arial" font-size="11.00">• Anpassung der Erwartungen</text>
<text text-anchor="middle" x="225.62" y="-492.05" font-family="Arial" font-size="11.00">• Keine dauerhafte Senkung der</text>
<text text-anchor="middle" x="225.62" y="-478.55" font-family="Arial" font-size="11.00"> &#160;Arbeitslosigkeit durch Inflation</text>
</g>
<!-- islm&#45;&gt;friedman -->
<g id="edge6" class="edge">
<title>islm&#45;&gt;friedman</title>
<path fill="none" stroke="#555555" stroke-width="1.2" d="M132.66,-593.15C146.42,-580.88 162.56,-566.49 177.49,-553.18"/>
<polygon fill="#555555" stroke="#555555" stroke-width="1.2" points="183.16,-548.12 179.58,-556.13 181.33,-549.88 177.25,-553.52 177.19,-553.44 177.12,-553.37 181.2,-549.73 174.79,-550.76 183.16,-548.12"/>
<text text-anchor="middle" x="200" y="-566.95" font-family="Arial" font-size="9.00"> Krisen der 1960er</text>
</g>
<!-- phillips&#45;&gt;friedman -->
<g id="edge5" class="edge">
<title>phillips&#45;&gt;friedman</title>
<path fill="none" stroke="#555555" stroke-width="1.2" d="M269.55,-593.15C263.4,-581.54 256.24,-568.04 249.52,-555.34"/>
<polygon fill="#555555" stroke="#555555" stroke-width="1.2" points="245.86,-548.44 252.78,-553.82 247.13,-550.63 249.69,-555.46 249.6,-555.51 249.51,-555.55 246.96,-550.73 246.42,-557.19 245.86,-548.44"/>
<text text-anchor="middle" x="300.09" y="-566.95" font-family="Arial" font-size="9.00"> theoretischer Druck</text>
</g>
<!-- lucas -->
<g id="node7" class="node">
<title>lucas</title>
<path fill="#fff3e0" stroke="#fb8c00" stroke-width="1.5" d="M309.75,-425C309.75,-425 141.5,-425 141.5,-425 135.5,-425 129.5,-419 129.5,-413 129.5,-413 129.5,-361.5 129.5,-361.5 129.5,-355.5 135.5,-349.5 141.5,-349.5 141.5,-349.5 309.75,-349.5 309.75,-349.5 315.75,-349.5 321.75,-355.5 321.75,-361.5 321.75,-361.5 321.75,-413 321.75,-413 321.75,-419 315.75,-425 309.75,-425"/>
<text text-anchor="middle" x="225.62" y="-410.55" font-family="Arial" font-size="11.00">Lucas&#45;Kritik (1968–1981)</text>
<text text-anchor="middle" x="225.62" y="-397.05" font-family="Arial" font-size="11.00">Robert Lucas</text>
<text text-anchor="middle" x="225.62" y="-383.55" font-family="Arial" font-size="11.00">• Rationale Erwartungen der Akteure</text>
<text text-anchor="middle" x="225.62" y="-370.05" font-family="Arial" font-size="11.00">• Forderung nach solider</text>
<text text-anchor="middle" x="225.62" y="-356.55" font-family="Arial" font-size="11.00"> &#160;mikroökonomischer Fundierung</text>
</g>
<!-- friedman&#45;&gt;lucas -->
<g id="edge7" class="edge">
<title>friedman&#45;&gt;lucas</title>
<path fill="none" stroke="#555555" stroke-width="1.2" d="M225.62,-471.27C225.62,-459.63 225.62,-446.64 225.62,-434.45"/>
<polygon fill="#555555" stroke="#555555" stroke-width="1.2" points="225.63,-426.78 229.23,-434.78 225.73,-429.32 225.73,-434.78 225.63,-434.78 225.53,-434.78 225.53,-429.32 222.03,-434.78 225.63,-426.78"/>
<text text-anchor="middle" x="252.62" y="-444.95" font-family="Arial" font-size="9.00"> verschärft zu</text>
</g>
<!-- rbc -->
<g id="node8" class="node">
<title>rbc</title>
<path fill="#f3e5f5" stroke="#8e24aa" stroke-width="1.5" d="M177.25,-292.5C177.25,-292.5 12,-292.5 12,-292.5 6,-292.5 0,-286.5 0,-280.5 0,-280.5 0,-229 0,-229 0,-223 6,-217 12,-217 12,-217 177.25,-217 177.25,-217 183.25,-217 189.25,-223 189.25,-229 189.25,-229 189.25,-280.5 189.25,-280.5 189.25,-286.5 183.25,-292.5 177.25,-292.5"/>
<text text-anchor="middle" x="94.62" y="-278.05" font-family="Arial" font-size="11.00">Real Business Cycle Theorie (1982)</text>
<text text-anchor="middle" x="94.62" y="-264.55" font-family="Arial" font-size="11.00">Kydland &amp; Prescott</text>
<text text-anchor="middle" x="94.62" y="-251.05" font-family="Arial" font-size="11.00">• Pareto&#45;effiziente Reaktionen</text>
<text text-anchor="middle" x="94.62" y="-237.55" font-family="Arial" font-size="11.00">• Reale Produktivitätsschocks</text>
<text text-anchor="middle" x="94.62" y="-224.05" font-family="Arial" font-size="11.00">• Vollkommen flexible Preise</text>
</g>
<!-- lucas&#45;&gt;rbc -->
<g id="edge8" class="edge">
<title>lucas&#45;&gt;rbc</title>
<path fill="none" stroke="#555555" stroke-width="1.2" d="M188.44,-349.2C172.81,-333.64 154.52,-315.42 138.26,-299.22"/>
<polygon fill="#555555" stroke="#555555" stroke-width="1.2" points="132.94,-293.92 141.15,-297.02 134.81,-295.64 138.68,-299.5 138.61,-299.57 138.54,-299.64 134.67,-295.78 136.07,-302.12 132.94,-293.92"/>
<text text-anchor="middle" x="196.47" y="-322.95" font-family="Arial" font-size="9.00"> Paradigma 1:</text>
<text text-anchor="middle" x="196.47" y="-312.45" font-family="Arial" font-size="9.00"> Freie Märkte</text>
</g>
<!-- neukeynes -->
<g id="node9" class="node">
<title>neukeynes</title>
<path fill="#f3e5f5" stroke="#8e24aa" stroke-width="1.5" d="M388.12,-292.5C388.12,-292.5 219.12,-292.5 219.12,-292.5 213.12,-292.5 207.12,-286.5 207.12,-280.5 207.12,-280.5 207.12,-229 207.12,-229 207.12,-223 213.12,-217 219.12,-217 219.12,-217 388.12,-217 388.12,-217 394.12,-217 400.12,-223 400.12,-229 400.12,-229 400.12,-280.5 400.12,-280.5 400.12,-286.5 394.12,-292.5 388.12,-292.5"/>
<text text-anchor="middle" x="303.62" y="-278.05" font-family="Arial" font-size="11.00">Neukeynesianische Makroökonomik</text>
<text text-anchor="middle" x="303.62" y="-264.55" font-family="Arial" font-size="11.00">• Neoklassische Grundstruktur</text>
<text text-anchor="middle" x="303.62" y="-251.05" font-family="Arial" font-size="11.00">• Nominale Rigiditäten</text>
<text text-anchor="middle" x="303.62" y="-237.55" font-family="Arial" font-size="11.00"> &#160;(Preis&#45; &amp; Lohnstarrheiten)</text>
<text text-anchor="middle" x="303.62" y="-224.05" font-family="Arial" font-size="11.00">• Wirksamkeit von Nachfrageschocks</text>
</g>
<!-- lucas&#45;&gt;neukeynes -->
<g id="edge9" class="edge">
<title>lucas&#45;&gt;neukeynes</title>
<path fill="none" stroke="#555555" stroke-width="1.2" d="M247.77,-349.2C256.74,-334.19 267.19,-316.7 276.61,-300.95"/>
<polygon fill="#555555" stroke="#555555" stroke-width="1.2" points="280.68,-294.14 279.66,-302.86 279.46,-296.37 276.66,-301.06 276.57,-301.01 276.49,-300.96 279.29,-296.27 273.48,-299.16 280.68,-294.14"/>
<text text-anchor="middle" x="300.8" y="-322.95" font-family="Arial" font-size="9.00"> Paradigma 2:</text>
<text text-anchor="middle" x="300.8" y="-312.45" font-family="Arial" font-size="9.00"> Marktversagen</text>
</g>
<!-- dsge -->
<g id="node10" class="node">
<title>dsge</title>
<path fill="#ede7f6" stroke="#5e35b1" stroke-width="2.5" d="M384.75,-170.5C384.75,-170.5 222.5,-170.5 222.5,-170.5 216.5,-170.5 210.5,-164.5 210.5,-158.5 210.5,-158.5 210.5,-120.5 210.5,-120.5 210.5,-114.5 216.5,-108.5 222.5,-108.5 222.5,-108.5 384.75,-108.5 384.75,-108.5 390.75,-108.5 396.75,-114.5 396.75,-120.5 396.75,-120.5 396.75,-158.5 396.75,-158.5 396.75,-164.5 390.75,-170.5 384.75,-170.5"/>
<text text-anchor="middle" x="303.62" y="-156.05" font-family="Arial" font-size="11.00">DSGE&#45;Modelle (Heute)</text>
<text text-anchor="middle" x="303.62" y="-142.55" font-family="Arial" font-size="11.00">• Dynamische stochastische</text>
<text text-anchor="middle" x="303.62" y="-129.05" font-family="Arial" font-size="11.00"> &#160;allgemeine Gleichgewichtsmodelle</text>
<text text-anchor="middle" x="303.62" y="-115.55" font-family="Arial" font-size="11.00">• Standard bei Zentralbanken</text>
</g>
<!-- rbc&#45;&gt;dsge -->
<g id="edge10" class="edge">
<title>rbc&#45;&gt;dsge</title>
<path fill="none" stroke="#555555" stroke-width="1.2" d="M163.35,-216.51C187.51,-203.42 214.57,-188.76 238.43,-175.83"/>
<polygon fill="#555555" stroke="#555555" stroke-width="1.2" points="245.44,-172.03 240.12,-179.01 243.26,-173.33 238.45,-175.93 238.41,-175.84 238.36,-175.75 243.16,-173.15 236.69,-172.68 245.44,-172.03"/>
<text text-anchor="middle" x="235.64" y="-190.45" font-family="Arial" font-size="9.00"> integriert in</text>
</g>
<!-- neukeynes&#45;&gt;dsge -->
<g id="edge11" class="edge">
<title>neukeynes&#45;&gt;dsge</title>
<path fill="none" stroke="#555555" stroke-width="1.2" d="M303.62,-216.67C303.62,-205.06 303.62,-192.21 303.62,-180.42"/>
<polygon fill="#555555" stroke="#555555" stroke-width="1.2" points="303.63,-172.69 307.23,-180.69 303.73,-175.23 303.73,-180.69 303.63,-180.69 303.53,-180.69 303.53,-175.23 300.03,-180.69 303.63,-172.69"/>
<text text-anchor="middle" x="327.62" y="-190.45" font-family="Arial" font-size="9.00"> integriert in</text>
</g>
<!-- zukunft -->
<g id="node13" class="node">
<title>zukunft</title>
<path fill="#e0f7fa" stroke="#00acc1" stroke-width="1.5" d="M449.38,-62C449.38,-62 281.88,-62 281.88,-62 275.88,-62 269.88,-56 269.88,-50 269.88,-50 269.88,-12 269.88,-12 269.88,-6 275.88,0 281.88,0 281.88,0 449.38,0 449.38,0 455.38,0 461.38,-6 461.38,-12 461.38,-12 461.38,-50 461.38,-50 461.38,-56 455.38,-62 449.38,-62"/>
<text text-anchor="middle" x="365.62" y="-47.55" font-family="Arial" font-size="11.00">Ansätze des 21. Jahrhunderts</text>
<text text-anchor="middle" x="365.62" y="-34.05" font-family="Arial" font-size="11.00">• &#160;Ökologische Nachhaltigkeit</text>
<text text-anchor="middle" x="365.62" y="-20.55" font-family="Arial" font-size="11.00">• Heterogene Akteure</text>
<text text-anchor="middle" x="365.62" y="-7.05" font-family="Arial" font-size="11.00">• Routinebasierte Erwartungsbildung</text>
</g>
<!-- dsge&#45;&gt;zukunft -->
<g id="edge12" class="edge">
<title>dsge&#45;&gt;zukunft</title>
<path fill="none" stroke="#555555" stroke-width="1.2" d="M302.96,-107.78C303.84,-98.43 305.94,-88.41 310.38,-80 312.33,-76.3 314.69,-72.75 317.33,-69.38"/>
<polygon fill="#555555" stroke="#555555" stroke-width="1.2" points="322.54,-63.41 320,-71.81 320.94,-65.39 317.36,-69.51 317.28,-69.44 317.21,-69.38 320.79,-65.26 314.57,-67.08 322.54,-63.41"/>
<text text-anchor="middle" x="362.5" y="-81.95" font-family="Arial" font-size="9.00"> erweitert um neue Krisen</text>
</g>
<!-- endogen -->
<g id="node12" class="node">
<title>endogen</title>
<path fill="#e8f5e9" stroke="#43a047" stroke-width="1.5" d="M517.25,-722C517.25,-722 340,-722 340,-722 334,-722 328,-716 328,-710 328,-710 328,-685.5 328,-685.5 328,-679.5 334,-673.5 340,-673.5 340,-673.5 517.25,-673.5 517.25,-673.5 523.25,-673.5 529.25,-679.5 529.25,-685.5 529.25,-685.5 529.25,-710 529.25,-710 529.25,-716 523.25,-722 517.25,-722"/>
<text text-anchor="middle" x="428.62" y="-707.55" font-family="Arial" font-size="11.00">Endogene Wachstumstheorie (1980er)</text>
<text text-anchor="middle" x="428.62" y="-694.05" font-family="Arial" font-size="11.00">• Humankapitalbildung</text>
<text text-anchor="middle" x="428.62" y="-680.55" font-family="Arial" font-size="11.00">• Innovationen innerhalb des Modells</text>
</g>
<!-- solow&#45;&gt;endogen -->
<g id="edge14" class="edge">
<title>solow&#45;&gt;endogen</title>
<path fill="none" stroke="#555555" stroke-width="1.2" d="M428.62,-861.63C428.62,-828.79 428.62,-769.18 428.62,-731.9"/>
<polygon fill="#555555" stroke="#555555" stroke-width="1.2" points="428.63,-723.93 432.23,-731.93 428.73,-726.47 428.73,-731.93 428.63,-731.93 428.53,-731.93 428.53,-726.47 425.03,-731.93 428.63,-723.93"/>
<text text-anchor="middle" x="467.25" y="-835.45" font-family="Arial" font-size="9.00"> Weiterentwicklung</text>
</g>
<!-- endogen&#45;&gt;zukunft -->
<g id="edge15" class="edge">
<title>endogen&#45;&gt;zukunft</title>
<path fill="none" stroke="#555555" stroke-width="1.2" stroke-dasharray="5,2" d="M428.62,-673.16C428.62,-647.93 428.62,-606.76 428.62,-571.25 428.62,-571.25 428.62,-571.25 428.62,-138.5 428.62,-111.77 427.8,-103.26 414.62,-80 412.59,-76.41 410.21,-72.9 407.61,-69.54"/>
<polygon fill="#555555" stroke="#555555" stroke-width="1.2" points="402.56,-63.51 410.46,-67.33 404.27,-65.39 407.77,-69.58 407.7,-69.64 407.62,-69.71 404.11,-65.52 404.94,-71.96 402.56,-63.51"/>
<text text-anchor="middle" x="459" y="-389.2" font-family="Arial" font-size="9.00"> Einfluss auf</text>
<text text-anchor="middle" x="459" y="-378.7" font-family="Arial" font-size="9.00"> Nachhaltigkeit</text>
</g>
</g>
</svg>
